<svg width="1200" height="298" viewBox="0 0 1200 298" fill="none" xmlns="http://www.w3.org/2000/svg">
<g clip-path="url(#clip0_5361_471960)">
<path fill-rule="evenodd" clip-rule="evenodd" d="M96.1249 286.606C114.666 293.966 134.706 297.645 156.246 297.645C179.695 297.645 200.281 293.966 218.004 286.606C235.999 279.247 251.95 269.162 265.856 256.351L234.921 225.427C226.525 229.454 215.682 231.781 201.789 231.781C184.543 231.781 200.482 240.96 220.589 247.755C220.754 247.811 220.741 248.05 220.57 248.08C195.198 252.604 164.746 249.952 156.318 247.964C148.193 246.048 157.19 252.077 165.762 257.82L166.304 258.183C166.454 258.284 166.366 258.516 166.188 258.486C134.907 253.174 99.5521 230.174 83.9438 200.901C83.2497 199.599 80.4714 195.26 77.867 196.996C75.2627 198.731 80.2498 206.228 85.6428 211.021C86.9822 212.451 85.5003 212.747 84.6411 212.451C74.1274 208.822 52.1466 194.427 54.428 176.602C54.5925 173.636 59.0639 165.12 69.7224 165.12C64.886 145.742 66.7096 108.705 95.7886 81.2821C98.5811 78.565 101.547 76.0904 104.686 73.8581C105.672 73.1292 106.683 72.4104 107.718 71.7023C127.332 58.2849 181.067 44.0641 221.64 83.8522L263.811 41.2942C250.45 28.4834 234.772 18.3984 216.777 11.039C199.054 3.67967 178.741 0 155.837 0C134.297 0 114.257 3.81597 95.7159 11.4479C77.4477 18.8072 61.4971 29.1648 47.8641 42.5207C34.2311 55.8766 23.5974 71.6856 15.9629 89.9477C8.32847 107.937 4.51123 127.426 4.51123 148.414C4.51123 169.402 8.32847 189.026 15.9629 207.289C23.5974 225.278 34.2311 241.087 47.8641 254.716C61.7698 268.344 77.8567 278.974 96.1249 286.606Z" fill="#7E7CBE"/>
<path d="M130.951 157.847C126.295 157.259 121.063 154.864 118.376 151.393C116.025 148.356 114.903 143.607 117.811 143.607C118.791 143.73 119.771 143.854 120.751 143.978C129.06 144.426 133.266 134.771 135.261 128.432C139.549 113.395 143.575 112.126 146.59 111.907C147.892 111.907 157.789 110.902 159.598 129.705C160.968 147.253 147.418 159.924 130.951 157.847Z" fill="#7E7CBE"/>
<path d="M103.536 148.251C103.683 147.089 102.517 146.941 102.517 146.941L100.185 146.647C93.0589 145.36 89.3405 129.336 88.3947 127.445C87.5308 125.718 85.5532 126.496 85.5532 126.496C85.5532 126.496 81.8352 127.799 80.1477 141.167C78.016 162.746 91.4244 164.438 91.4244 164.438C101.335 165.688 103.389 149.413 103.536 148.251Z" fill="#7E7CBE"/>
</g>
<path d="M314.554 242.647C297.677 242.647 282.461 238.434 268.908 230.007C255.355 221.581 244.743 210.09 237.071 195.536C229.4 180.981 225.564 164.639 225.564 146.51C225.564 128.125 229.4 111.656 237.071 97.1013C244.743 82.5468 255.355 71.0563 268.908 62.63C282.461 54.2037 297.677 49.9906 314.554 49.9906C327.852 49.9906 339.743 52.6717 350.227 58.0339C360.712 63.3961 369.023 70.9287 375.16 80.6317C381.553 90.0794 385.005 100.804 385.516 112.805V179.449C385.005 191.706 381.553 202.558 375.16 212.006C369.023 221.453 360.712 228.986 350.227 234.603C339.743 239.966 327.852 242.647 314.554 242.647ZM323.76 196.302C337.825 196.302 349.204 191.706 357.899 182.513C366.593 173.066 370.94 160.937 370.94 146.127C370.94 136.424 368.895 127.87 364.803 120.465C360.967 112.805 355.469 106.932 348.309 102.847C341.405 98.5057 333.222 96.3353 323.76 96.3353C314.554 96.3353 306.371 98.5057 299.211 102.847C292.307 106.932 286.809 112.805 282.717 120.465C278.881 127.87 276.964 136.424 276.964 146.127C276.964 156.085 278.881 164.895 282.717 172.555C286.809 179.96 292.307 185.833 299.211 190.174C306.371 194.259 314.554 196.302 323.76 196.302ZM368.255 238.817V189.025L376.311 143.829L368.255 99.3994V53.8207H418.121V238.817H368.255Z" fill="#7E7CBE"/>
<path d="M558.942 238.817V132.722C558.942 121.742 555.49 112.805 548.585 105.911C541.681 99.0164 532.73 95.5692 521.735 95.5692C514.574 95.5692 508.181 97.1013 502.556 100.165C496.93 103.23 492.455 107.57 489.13 113.188C486.062 118.805 484.527 125.317 484.527 132.722L464.965 122.763C464.965 108.209 468.033 95.5692 474.171 84.8449C480.564 73.8651 489.258 65.3111 500.254 59.1829C511.506 53.0547 524.164 49.9906 538.228 49.9906C551.782 49.9906 563.928 53.4377 574.668 60.3319C585.409 66.9709 593.847 75.7802 599.985 86.7599C606.122 97.4843 609.191 109.102 609.191 121.614V238.817H558.942ZM434.278 238.817V53.8207H484.527V238.817H434.278Z" fill="#7E7CBE"/>
<path d="M719.678 242.647C701.01 242.647 684.133 238.434 669.045 230.007C654.214 221.326 642.323 209.707 633.372 195.153C624.678 180.343 620.331 163.873 620.331 145.744C620.331 127.615 624.678 111.401 633.372 97.1013C642.067 82.5468 653.958 71.0563 669.045 62.63C684.133 53.9484 700.882 49.6075 719.294 49.6075C738.217 49.6075 755.095 53.9484 769.927 62.63C785.014 71.0563 796.905 82.5468 805.6 97.1013C814.294 111.401 818.641 127.615 818.641 145.744C818.641 163.873 814.294 180.343 805.6 195.153C796.905 209.707 785.014 221.326 769.927 230.007C755.095 238.434 738.345 242.647 719.678 242.647ZM719.294 195.919C728.756 195.919 737.067 193.876 744.227 189.791C751.643 185.45 757.269 179.577 761.104 172.172C765.196 164.512 767.242 155.83 767.242 146.127C767.242 136.424 765.196 127.87 761.104 120.465C757.013 113.06 751.387 107.315 744.227 103.23C737.067 98.8887 728.756 96.7183 719.294 96.7183C710.088 96.7183 701.905 98.8887 694.745 103.23C687.585 107.315 681.959 113.06 677.868 120.465C673.776 127.87 671.73 136.424 671.73 146.127C671.73 155.83 673.776 164.512 677.868 172.172C681.959 179.577 687.585 185.45 694.745 189.791C701.905 193.876 710.088 195.919 719.294 195.919Z" fill="#7E7CBE"/>
<path d="M932.463 242.647C919.165 242.647 907.146 239.966 896.406 234.603C885.666 228.986 877.099 221.453 870.706 212.006C864.313 202.558 860.861 191.706 860.35 179.449V113.954C860.861 101.697 864.313 90.8454 870.706 81.3977C877.355 71.6947 885.922 64.0344 896.406 58.4169C907.146 52.7993 919.165 49.9906 932.463 49.9906C949.596 49.9906 964.939 54.2037 978.492 62.63C992.045 71.0563 1002.66 82.5468 1010.33 97.1013C1018.26 111.656 1022.22 128.125 1022.22 146.51C1022.22 164.639 1018.26 180.981 1010.33 195.536C1002.66 210.09 992.045 221.581 978.492 230.007C964.939 238.434 949.596 242.647 932.463 242.647ZM923.64 196.302C932.846 196.302 941.029 194.259 948.189 190.174C955.35 185.833 960.847 179.96 964.683 172.555C968.775 164.895 970.821 156.085 970.821 146.127C970.821 136.424 968.775 127.87 964.683 120.465C960.847 112.805 955.35 106.932 948.189 102.847C941.029 98.5057 932.846 96.3353 923.64 96.3353C914.69 96.3353 906.635 98.5057 899.475 102.847C892.315 106.932 886.689 112.805 882.597 120.465C878.762 127.87 876.844 136.424 876.844 146.127C876.844 156.085 878.762 164.895 882.597 172.555C886.689 179.96 892.187 185.833 899.091 190.174C906.251 194.259 914.434 196.302 923.64 196.302ZM830.047 297.645L829.663 53.8207H879.912V102.464L871.474 147.276L879.529 192.089L879.912 297.645H830.047Z" fill="#7E7CBE"/>
<path d="M1079.6 240.349L1002.12 53.8207H1056.59L1107.99 196.302H1089.57L1142.89 53.8207H1197.74L1115.27 239.966L1079.6 240.349ZM1036.26 297.645L1084.59 197.068L1115.27 239.966L1089.57 297.645H1036.26Z" fill="#7E7CBE"/>
<defs>
<clipPath id="clip0_5361_471960">
<rect width="261.344" height="297.645" fill="white" transform="translate(4.51123)"/>
</clipPath>
</defs>
</svg>
