<svg width="250" height="285" viewBox="0 0 250 285" fill="none" xmlns="http://www.w3.org/2000/svg">
<g clip-path="url(#clip0_5357_471935)">
<path fill-rule="evenodd" clip-rule="evenodd" d="M87.6369 274.389C105.373 281.435 124.544 284.958 145.149 284.958C167.58 284.958 187.272 281.435 204.225 274.389C221.44 267.344 236.698 257.688 250 245.424L220.408 215.817C212.376 219.673 202.005 221.901 188.715 221.901C172.241 221.901 187.419 230.663 206.615 237.166C206.795 237.227 206.78 237.488 206.593 237.521C182.34 241.83 153.27 239.295 145.217 237.394C137.445 235.56 146.052 241.331 154.252 246.83L154.683 247.12C154.847 247.23 154.751 247.484 154.556 247.45C124.658 242.331 90.8983 220.331 75.9846 192.337C75.3206 191.091 72.6629 186.937 70.1716 188.598C67.6803 190.26 72.4509 197.438 77.6098 202.026C78.8911 203.395 77.4735 203.679 76.6516 203.395C66.5943 199.921 45.5676 186.139 47.75 169.074C47.9073 166.235 52.1846 158.082 62.3805 158.082C57.7538 139.528 59.4987 104.067 87.32 77.8127C89.9883 75.2148 92.822 72.8484 95.8209 70.7134C100.624 67.294 105.851 64.4684 111.502 62.2366C121.674 58.0614 132.76 55.9738 144.757 55.9738C158.32 55.9738 170.188 58.1919 180.36 62.628C190.793 67.0642 199.661 73.1965 206.964 81.025L207.704 80.2779L248.044 39.5339C235.263 27.2693 220.266 17.6141 203.052 10.5685C186.098 3.52282 166.667 0 144.757 0C124.152 0 104.982 3.65331 87.2457 10.9599C69.7705 18.0056 54.5123 27.9217 41.4711 40.7082C28.4298 53.4948 18.2577 68.6299 10.9546 86.1136C3.65154 103.336 0 121.994 0 142.087C0 162.181 3.65154 180.969 10.9546 198.453C18.2577 215.675 28.4298 230.81 41.4711 243.858C54.7731 256.905 70.1617 267.083 87.6369 274.389Z" fill="#7E7CBE"/>
<path d="M120.951 151.118C116.497 150.556 111.492 148.263 108.922 144.94C106.674 142.032 105.6 137.485 108.382 137.485C109.319 137.604 110.257 137.722 111.195 137.84C119.142 138.27 123.166 129.027 125.075 122.958C129.177 108.561 133.027 107.347 135.911 107.137C137.157 107.137 146.624 106.175 148.355 124.176C149.665 140.977 136.704 153.107 120.951 151.118Z" fill="#7E7CBE"/>
<path d="M94.7263 141.932C94.8667 140.819 93.7514 140.678 93.7514 140.678L91.5207 140.396C84.704 139.164 81.147 123.823 80.2422 122.013C79.4159 120.359 77.5241 121.104 77.5241 121.104C77.5241 121.104 73.9675 122.351 72.3532 135.15C70.3141 155.809 83.1404 157.428 83.1404 157.428C92.6208 158.625 94.586 143.045 94.7263 141.932Z" fill="#7E7CBE"/>
</g>
<defs>
<clipPath id="clip0_5357_471935">
<rect width="250" height="284.958" fill="white"/>
</clipPath>
</defs>
</svg>
