<?xml version="1.0" encoding="utf-8"?>
<!-- Generator: Adobe Illustrator 27.2.0, SVG Export Plug-In . SVG Version: 6.00 Build 0)  -->
<svg version="1.1" id="Layer_1" xmlns="http://www.w3.org/2000/svg" xmlns:xlink="http://www.w3.org/1999/xlink" x="0px" y="0px"
	 viewBox="0 0 24 24" style="enable-background:new 0 0 24 24;" xml:space="preserve">
<style type="text/css">
	.st0{fill:none;stroke:#2D1859;stroke-width:1.5;stroke-linecap:round;stroke-linejoin:round;}
</style>
<path class="st0" d="M14,12c0-2.5-2.3-5-5.1-5C8.5,7,7.4,7,7.1,7C4.3,7,2,9.2,2,12c0,2.4,1.7,4.4,4,4.9C6.4,17,6.8,17,7.1,17"/>
<path class="st0" d="M10,12c0,2.5,2.3,5,5.1,5c0.3,0,1.4,0,1.7,0c2.8,0,5.1-2.2,5.1-5c0-2.4-1.7-4.4-4-4.9C17.6,7,17.2,7,16.9,7"/>
</svg>
